<svg width="20" height="18" viewBox="0 0 20 18" xmlns="http://www.w3.org/2000/svg">
<path d="M5 17.75C4.83429 17.7498 4.67542 17.6839 4.55824 17.5668C4.44107 17.4496 4.37517 17.2907 4.375 17.125V14H2.5C1.46625 14 0.625 13.1588 0.625 12.125V2.125C0.625 1.09125 1.46625 0.25 2.5 0.25H17.5C18.5338 0.25 19.375 1.09125 19.375 2.125V12.125C19.375 13.1588 18.5338 14 17.5 14H9.90687L5.39062 17.6131C5.27979 17.7019 5.14199 17.7502 5 17.75ZM2.5 1.5C2.155 1.5 1.875 1.78062 1.875 2.125V12.125C1.875 12.4694 2.155 12.75 2.5 12.75H5C5.16576 12.75 5.32473 12.8158 5.44194 12.9331C5.55915 13.0503 5.625 13.2092 5.625 13.375V15.825L9.29688 12.8869C9.40776 12.7982 9.54552 12.7499 9.6875 12.75H17.5C17.845 12.75 18.125 12.4694 18.125 12.125V2.125C18.125 1.78062 17.845 1.5 17.5 1.5H2.5Z"/>
<path d="M15 6.5H5C4.83424 6.5 4.67527 6.43415 4.55806 6.31694C4.44085 6.19973 4.375 6.04076 4.375 5.875C4.375 5.70924 4.44085 5.55027 4.55806 5.43306C4.67527 5.31585 4.83424 5.25 5 5.25H15C15.1658 5.25 15.3247 5.31585 15.4419 5.43306C15.5592 5.55027 15.625 5.70924 15.625 5.875C15.625 6.04076 15.5592 6.19973 15.4419 6.31694C15.3247 6.43415 15.1658 6.5 15 6.5ZM10 9H5C4.83424 9 4.67527 8.93415 4.55806 8.81694C4.44085 8.69973 4.375 8.54076 4.375 8.375C4.375 8.20924 4.44085 8.05027 4.55806 7.93306C4.67527 7.81585 4.83424 7.75 5 7.75H10C10.1658 7.75 10.3247 7.81585 10.4419 7.93306C10.5592 8.05027 10.625 8.20924 10.625 8.375C10.625 8.54076 10.5592 8.69973 10.4419 8.81694C10.3247 8.93415 10.1658 9 10 9Z"/>
</svg>
