<svg width="19" height="18" viewBox="0 0 19 18" fill="none" xmlns="http://www.w3.org/2000/svg">
<path d="M12.4604 5.9942C11.6631 5.19695 10.5376 4.68107 9.31822 4.68107C8.09889 4.68107 6.97335 5.1735 6.17609 5.9942C5.37883 6.79146 4.86296 7.917 4.86296 9.13634C4.86296 10.3557 5.37883 11.4812 6.17609 12.2785C6.97335 13.0757 8.09889 13.5916 9.31822 13.5916C10.5376 13.5916 11.6631 13.0992 12.4604 12.2785C13.2576 11.4812 13.7735 10.3557 13.7735 9.13634C13.7735 7.917 13.2811 6.79146 12.4604 5.9942ZM11.6162 11.4343C11.03 12.0205 10.2093 12.3723 9.31822 12.3723C8.42717 12.3723 7.60646 12.0205 7.02025 11.4343C6.43403 10.8481 6.08229 10.0274 6.08229 9.13634C6.08229 8.24529 6.43403 7.42458 7.02025 6.83836C7.60646 6.25214 8.42717 5.90041 9.31822 5.90041C10.2093 5.90041 11.03 6.25214 11.6162 6.83836C12.2024 7.42458 12.5542 8.24529 12.5542 9.13634C12.5542 10.0274 12.2024 10.8481 11.6162 11.4343ZM17.5722 8.52667H15.7666C15.4384 8.52667 15.157 8.80806 15.157 9.13634C15.157 9.46462 15.4384 9.74601 15.7666 9.74601H17.5722C17.9005 9.74601 18.1819 9.46462 18.1819 9.13634C18.1819 8.80806 17.9005 8.52667 17.5722 8.52667ZM9.31822 14.9751C8.98994 14.9751 8.70856 15.2565 8.70856 15.5848V17.3903C8.70856 17.7186 8.98994 18 9.31822 18C9.64651 18 9.92789 17.7186 9.92789 17.3903V15.5848C9.92789 15.2565 9.64651 14.9751 9.31822 14.9751ZM15.579 14.553L14.2894 13.2633C14.0783 13.0288 13.6797 13.0288 13.4452 13.2633C13.2107 13.4978 13.2107 13.873 13.4452 14.1075L14.7349 15.3972C14.9694 15.6316 15.3446 15.6316 15.579 15.3972C15.8135 15.1627 15.8135 14.7875 15.579 14.553ZM9.31822 0.272705C8.98994 0.272705 8.70856 0.55409 8.70856 0.882373V2.68793C8.70856 3.01621 8.98994 3.2976 9.31822 3.2976C9.64651 3.2976 9.92789 3.01621 9.92789 2.68793V0.882373C9.92789 0.55409 9.64651 0.272705 9.31822 0.272705ZM15.6025 2.87552C15.368 2.64103 14.9928 2.64103 14.7583 2.87552L13.4687 4.1652C13.2342 4.39969 13.2342 4.77487 13.4687 5.00936C13.6797 5.24384 14.0783 5.24384 14.3128 5.00936L15.6025 3.71967C15.837 3.48519 15.837 3.11001 15.6025 2.87552ZM2.86981 8.52667H1.06426C0.735975 8.52667 0.45459 8.80806 0.45459 9.13634C0.45459 9.46462 0.712526 9.74601 1.06426 9.74601H2.86981C3.1981 9.74601 3.47948 9.46462 3.47948 9.13634C3.47948 8.80806 3.1981 8.52667 2.86981 8.52667ZM5.16779 13.2633C4.95675 13.0288 4.55812 13.0288 4.32364 13.2633L3.03395 14.553C2.79947 14.7875 2.79947 15.1627 3.03395 15.3972C3.26844 15.6316 3.64362 15.6316 3.87811 15.3972L5.16779 14.1075C5.40228 13.873 5.40228 13.4978 5.16779 13.2633ZM5.16779 4.1652L3.87811 2.87552C3.64362 2.64103 3.26844 2.64103 3.03395 2.87552C2.79947 3.11001 2.79947 3.48519 3.03395 3.71967L4.32364 5.00936C4.55812 5.24384 4.9333 5.24384 5.16779 5.00936C5.40228 4.77487 5.40228 4.39969 5.16779 4.1652Z"/>
</svg>
