<svg width="16" height="18" viewBox="0 0 16 18" fill="none" xmlns="http://www.w3.org/2000/svg">
<path d="M14.3281 2.10938H11.6914V1.58203C11.6914 0.709699 10.9817 0 10.1094 0H5.89062C5.01829 0 4.30859 0.709699 4.30859 1.58203V2.10938H1.67188C0.799543 2.10938 0.0898438 2.81907 0.0898438 3.69141C0.0898438 4.392 0.547754 4.9873 1.17986 5.19472L2.12047 16.5493C2.18822 17.3628 2.88072 18 3.69702 18H12.303C13.1193 18 13.8118 17.3628 13.8796 16.5491L14.8201 5.19469C15.4522 4.9873 15.9102 4.392 15.9102 3.69141C15.9102 2.81907 15.2005 2.10938 14.3281 2.10938ZM5.36328 1.58203C5.36328 1.29125 5.59985 1.05469 5.89062 1.05469H10.1094C10.4002 1.05469 10.6367 1.29125 10.6367 1.58203V2.10938H5.36328V1.58203ZM12.8285 16.4618C12.8059 16.7329 12.5751 16.9453 12.303 16.9453H3.69702C3.42494 16.9453 3.19411 16.7329 3.17157 16.462L2.24471 5.27344H13.7553L12.8285 16.4618ZM14.3281 4.21875H1.67188C1.3811 4.21875 1.14453 3.98218 1.14453 3.69141C1.14453 3.40063 1.3811 3.16406 1.67188 3.16406H14.3281C14.6189 3.16406 14.8555 3.40063 14.8555 3.69141C14.8555 3.98218 14.6189 4.21875 14.3281 4.21875Z" fill="#EA2A2A"/>
<path d="M5.88965 15.3306L5.3623 6.8228C5.34427 6.53209 5.09266 6.311 4.80335 6.3291C4.51265 6.34714 4.29162 6.59738 4.30962 6.88805L4.83696 15.3959C4.8543 15.6755 5.08647 15.8906 5.3628 15.8906C5.6682 15.8906 5.90838 15.6334 5.88965 15.3306ZM8.00004 6.32812C7.70881 6.32812 7.4727 6.56423 7.4727 6.85546V15.3633C7.4727 15.6545 7.70881 15.8906 8.00004 15.8906C8.29128 15.8906 8.52739 15.6545 8.52739 15.3633V6.85546C8.52739 6.56423 8.29128 6.32812 8.00004 6.32812ZM11.1967 6.32914C10.9067 6.3111 10.6557 6.53213 10.6377 6.82284L10.1104 15.3306C10.0924 15.6213 10.3135 15.8716 10.6041 15.8896C10.895 15.9076 11.1451 15.6865 11.1631 15.3959L11.6904 6.88809C11.7084 6.59738 11.4874 6.34714 11.1967 6.32914Z" fill="#EA2A2A"/>
</svg>
