<svg width="16" height="16" viewBox="0 0 16 16" fill="none" xmlns="http://www.w3.org/2000/svg">
<path d="M2.12317 11.2617C2.01194 11.2616 1.90321 11.2286 1.81073 11.1668C1.71825 11.105 1.64617 11.0172 1.6036 10.9144C1.56104 10.8116 1.5499 10.6986 1.57159 10.5895C1.59329 10.4804 1.64684 10.3801 1.72548 10.3015L10.5157 1.51129C10.5676 1.45757 10.6296 1.41472 10.6983 1.38524C10.7669 1.35576 10.8407 1.34024 10.9154 1.33959C10.9901 1.33894 11.0641 1.35317 11.1333 1.38146C11.2024 1.40974 11.2652 1.45151 11.318 1.50432C11.3708 1.55714 11.4126 1.61994 11.4409 1.68907C11.4692 1.7582 11.4834 1.83227 11.4827 1.90696C11.4821 1.98165 11.4666 2.05546 11.4371 2.12408C11.4076 2.19271 11.3648 2.25478 11.311 2.30667L2.52086 11.0969C2.41117 11.2065 2.26717 11.2617 2.12317 11.2617Z" fill="#8E8E8E"/>
<path d="M1.25472 15.3125C1.17079 15.3126 1.0879 15.2939 1.01214 15.2577C0.936383 15.2216 0.869669 15.169 0.816891 15.1037C0.764114 15.0385 0.72661 14.9622 0.707131 14.8806C0.687651 14.7989 0.686689 14.714 0.704315 14.6319L1.57338 10.581C1.58868 10.5086 1.61812 10.4399 1.66001 10.3789C1.70191 10.3179 1.75543 10.2658 1.81752 10.2255C1.87961 10.1852 1.94904 10.1575 2.02183 10.1441C2.09462 10.1307 2.16935 10.1318 2.24172 10.1473C2.31409 10.1628 2.38268 10.1925 2.44357 10.2346C2.50446 10.2767 2.55644 10.3304 2.59654 10.3926C2.63664 10.4548 2.66406 10.5243 2.67724 10.5971C2.69042 10.67 2.6891 10.7447 2.67335 10.817L1.80428 14.8679C1.77733 14.9936 1.70809 15.1064 1.60808 15.1873C1.50808 15.2682 1.38336 15.3124 1.25472 15.3125ZM5.305 14.4435C5.19377 14.4434 5.08504 14.4104 4.99256 14.3486C4.90008 14.2868 4.828 14.199 4.78543 14.0962C4.74287 13.9934 4.73173 13.8803 4.75342 13.7712C4.77512 13.6622 4.82867 13.5619 4.90732 13.4833L13.6975 4.69336C13.7494 4.63964 13.8115 4.59678 13.8801 4.5673C13.9487 4.53782 14.0225 4.52231 14.0972 4.52166C14.1719 4.52101 14.246 4.53524 14.3151 4.56352C14.3842 4.59181 14.447 4.63357 14.4999 4.68639C14.5527 4.7392 14.5944 4.80201 14.6227 4.87114C14.651 4.94027 14.6652 5.01434 14.6646 5.08902C14.6639 5.16371 14.6484 5.23752 14.6189 5.30615C14.5895 5.37478 14.5466 5.43685 14.4929 5.48874L5.70297 14.2786C5.65077 14.331 5.58874 14.3725 5.52044 14.4008C5.45214 14.4291 5.37893 14.4436 5.305 14.4435Z" fill="#8E8E8E"/>
<path d="M1.25387 15.3125C1.11527 15.3119 0.981751 15.2602 0.878917 15.1673C0.776083 15.0743 0.711163 14.9467 0.696598 14.8089C0.682034 14.671 0.718849 14.5327 0.79999 14.4203C0.88113 14.3079 1.00089 14.2294 1.13631 14.1999L5.18715 13.3308C5.33282 13.3001 5.48474 13.3283 5.60962 13.4093C5.73451 13.4904 5.82217 13.6176 5.8534 13.7632C5.88462 13.9088 5.85687 14.0608 5.77622 14.1859C5.69556 14.311 5.56859 14.3991 5.42312 14.4308L1.37228 15.2999C1.33338 15.3083 1.29368 15.3126 1.25387 15.3125ZM12.5044 7.24429C12.4306 7.24443 12.3574 7.22994 12.2891 7.20165C12.2209 7.17336 12.1589 7.13184 12.1067 7.07948L8.92497 3.8977C8.87124 3.84581 8.82839 3.78374 8.79891 3.71511C8.76943 3.64648 8.75391 3.57267 8.75326 3.49798C8.75261 3.4233 8.76685 3.34923 8.79513 3.2801C8.82341 3.21097 8.86518 3.14816 8.918 3.09535C8.97081 3.04253 9.03361 3.00077 9.10274 2.97248C9.17187 2.9442 9.24594 2.92997 9.32063 2.93062C9.39532 2.93127 9.46913 2.94678 9.53776 2.97626C9.60638 3.00574 9.66845 3.0486 9.72034 3.10232L12.9021 6.2841C12.9808 6.36277 13.0343 6.46299 13.056 6.57209C13.0777 6.68118 13.0666 6.79427 13.024 6.89703C12.9814 6.9998 12.9094 7.08764 12.8169 7.14945C12.7244 7.21126 12.6157 7.24427 12.5044 7.24429ZM14.0955 5.65354C13.9842 5.65363 13.8753 5.62069 13.7827 5.55888C13.6901 5.49708 13.618 5.4092 13.5754 5.30636C13.5328 5.20352 13.5216 5.09035 13.5434 4.98118C13.5651 4.87201 13.6187 4.77174 13.6975 4.69307C14.0105 4.38004 14.1829 3.9562 14.1829 3.50001C14.1829 3.04382 14.0105 2.61998 13.6975 2.30695C13.3842 1.99363 12.9603 1.82123 12.5042 1.82123C12.048 1.82123 11.6241 1.99363 11.3111 2.30695C11.2588 2.35919 11.1968 2.40063 11.1286 2.42891C11.0603 2.45718 10.9871 2.47173 10.9133 2.47173C10.8394 2.47173 10.7662 2.45718 10.698 2.42891C10.6297 2.40063 10.5677 2.35919 10.5154 2.30695C10.4632 2.2547 10.4218 2.19268 10.3935 2.12442C10.3652 2.05616 10.3506 1.983 10.3506 1.90912C10.3506 1.83524 10.3652 1.76208 10.3935 1.69382C10.4218 1.62556 10.4632 1.56353 10.5154 1.51129C11.0408 0.985634 11.747 0.696228 12.5042 0.696228C13.261 0.696228 13.9675 0.985634 14.4929 1.51129C15.0185 2.03667 15.3079 2.74288 15.3079 3.50001C15.3079 4.25713 15.0185 4.96335 14.4929 5.48873C14.4408 5.54106 14.3788 5.58256 14.3106 5.61084C14.2424 5.63913 14.1693 5.65364 14.0955 5.65354Z" fill="#8E8E8E"/>
</svg>
