<svg width="20" height="14" viewBox="0 0 20 14" fill="none" xmlns="http://www.w3.org/2000/svg">
<path d="M19.6439 6.66879L16.9677 2.15391C16.9327 2.09487 16.8793 2.04899 16.8156 2.02336C16.7519 1.99773 16.6816 1.99378 16.6155 2.01211C15.212 2.40106 14.6961 2.20551 14.0987 1.9791C13.5016 1.75278 12.8299 1.49844 11.3363 1.77739C11.1658 1.20047 10.6314 0.778168 10 0.778168C9.36863 0.778168 8.83426 1.20047 8.66379 1.77739C7.17016 1.4984 6.49844 1.75282 5.90137 1.9791C5.30399 2.20547 4.78809 2.40102 3.38457 2.01211C3.31843 1.99379 3.2481 1.99774 3.18443 2.02337C3.12076 2.049 3.0673 2.09487 3.03231 2.15391L0.356173 6.66879C0.318307 6.73266 0.304431 6.80793 0.317032 6.8811C0.567306 8.33649 1.82231 9.39285 3.30113 9.39285C4.77996 9.39285 6.03496 8.33649 6.28524 6.8811C6.29782 6.80793 6.28395 6.73266 6.24609 6.66879L3.94176 2.7811C5.03793 2.97457 5.58805 2.76621 6.12289 2.56352C6.67754 2.35332 7.2507 2.13664 8.62695 2.4068C8.72164 2.96102 9.14449 3.40434 9.68785 3.52926L9.68953 10.1213H7.47649C7.41394 10.1213 7.35284 10.14 7.30108 10.1751C7.24932 10.2102 7.20928 10.2601 7.18613 10.3182L6.7884 11.3174H5.91961C5.83673 11.3174 5.75724 11.3503 5.69864 11.409C5.64003 11.4676 5.60711 11.547 5.60711 11.6299V12.9093C5.60711 12.9922 5.64003 13.0717 5.69864 13.1303C5.75724 13.1889 5.83673 13.2218 5.91961 13.2218H14.0825C14.1654 13.2218 14.2449 13.1889 14.3035 13.1303C14.3621 13.0717 14.395 12.9922 14.395 12.9093V11.6299C14.395 11.547 14.3621 11.4676 14.3035 11.409C14.2449 11.3503 14.1654 11.3174 14.0825 11.3174H13.2137L12.816 10.3182C12.7928 10.2601 12.7528 10.2102 12.701 10.1751C12.6493 10.14 12.5882 10.1213 12.5256 10.1213H10.3145L10.3129 3.52911C10.856 3.40399 11.2786 2.96078 11.3732 2.40676C12.7494 2.13661 13.3226 2.35325 13.8772 2.56348C14.4121 2.76618 14.9622 2.97461 16.0584 2.78106L13.754 6.66875C13.7162 6.73263 13.7023 6.80789 13.7149 6.88106C13.9652 8.33645 15.2202 9.39282 16.699 9.39282C18.1778 9.39282 19.4328 8.33649 19.6831 6.88106C19.6956 6.8079 19.6817 6.73266 19.6439 6.66879ZM3.30113 8.76785C2.25547 8.76785 1.35137 8.10231 1.02609 7.14063H5.57617C5.2509 8.10235 4.34676 8.76785 3.30113 8.76785ZM5.42871 6.51563H1.17352L3.30113 2.9261L5.42871 6.51563ZM13.77 12.5969H6.23211V11.9425H13.77V12.5969H13.77ZM12.541 11.3175H7.46109L7.68844 10.7463H12.3136L12.541 11.3175ZM10.0004 2.93996H9.99992C9.57629 2.93989 9.23164 2.59524 9.23164 2.17157C9.23164 1.74786 9.57633 1.40317 10 1.40317C10.4238 1.40317 10.7684 1.74789 10.7684 2.17157C10.7684 2.59516 10.4239 2.93981 10.0004 2.93996ZM16.6989 2.92614L18.8266 6.51567H14.5714L16.6989 2.92614ZM16.6989 8.76785C15.6533 8.76785 14.7492 8.10231 14.4239 7.14063H18.974C18.6487 8.10231 17.7446 8.76785 16.6989 8.76785Z"/>
</svg>
