<svg width="20" height="20" viewBox="0 0 20 20" fill="none" xmlns="http://www.w3.org/2000/svg">
<path d="M2.14992 15.8417L2.13325 15.8583C1.90825 15.3667 1.76659 14.8083 1.70825 14.1917C1.76659 14.8 1.92492 15.35 2.14992 15.8417ZM7.49992 8.64999C8.02593 8.64999 8.5304 8.44103 8.90235 8.06908C9.27429 7.69713 9.48325 7.19267 9.48325 6.66665C9.48325 6.14064 9.27429 5.63617 8.90235 5.26422C8.5304 4.89228 8.02593 4.68332 7.49992 4.68332C6.97391 4.68332 6.46944 4.89228 6.09749 5.26422C5.72554 5.63617 5.51659 6.14064 5.51659 6.66665C5.51659 7.19267 5.72554 7.69713 6.09749 8.06908C6.46944 8.44103 6.97391 8.64999 7.49992 8.64999Z" fill="#616166"/>
<path d="M13.4916 1.66666H6.50829C3.47496 1.66666 1.66663 3.47499 1.66663 6.50832V13.4917C1.66663 14.4 1.82496 15.1917 2.13329 15.8583C2.84996 17.4417 4.38329 18.3333 6.50829 18.3333H13.4916C16.525 18.3333 18.3333 16.525 18.3333 13.4917V6.50832C18.3333 3.47499 16.525 1.66666 13.4916 1.66666ZM16.975 10.4167C16.325 9.85832 15.275 9.85832 14.625 10.4167L11.1583 13.3917C10.5083 13.95 9.45829 13.95 8.80829 13.3917L8.52496 13.1583C7.93329 12.6417 6.99163 12.5917 6.32496 13.0417L3.20829 15.1333C3.02496 14.6667 2.91663 14.125 2.91663 13.4917V6.50832C2.91663 4.15832 4.15829 2.91666 6.50829 2.91666H13.4916C15.8416 2.91666 17.0833 4.15832 17.0833 6.50832V10.5083L16.975 10.4167Z" fill="#616166"/>
</svg>
