<svg width="16" height="16" viewBox="0 0 16 16" fill="none" xmlns="http://www.w3.org/2000/svg">
<path d="M8 0.125C7.85082 0.125 7.70774 0.184263 7.60225 0.289752C7.49676 0.395242 7.4375 0.538316 7.4375 0.6875V15.3125C7.4375 15.4617 7.49676 15.6048 7.60225 15.7102C7.70774 15.8157 7.85082 15.875 8 15.875C8.14918 15.875 8.29226 15.8157 8.39775 15.7102C8.50324 15.6048 8.5625 15.4617 8.5625 15.3125V0.6875C8.5625 0.538316 8.50324 0.395242 8.39775 0.289752C8.29226 0.184263 8.14918 0.125 8 0.125ZM10.25 4.0625C10.1008 4.0625 9.95774 4.12176 9.85225 4.22725C9.74676 4.33274 9.6875 4.47582 9.6875 4.625V11.9375C9.6875 12.0867 9.74676 12.2298 9.85225 12.3352C9.95774 12.4407 10.1008 12.5 10.25 12.5C10.3992 12.5 10.5423 12.4407 10.6477 12.3352C10.7532 12.2298 10.8125 12.0867 10.8125 11.9375V4.625C10.8125 4.47582 10.7532 4.33274 10.6477 4.22725C10.5423 4.12176 10.3992 4.0625 10.25 4.0625ZM12.5 2.375C12.3508 2.375 12.2077 2.43426 12.1023 2.53975C11.9968 2.64524 11.9375 2.78832 11.9375 2.9375V13.625C11.9375 13.7742 11.9968 13.9173 12.1023 14.0227C12.2077 14.1282 12.3508 14.1875 12.5 14.1875C12.6492 14.1875 12.7923 14.1282 12.8977 14.0227C13.0032 13.9173 13.0625 13.7742 13.0625 13.625V2.9375C13.0625 2.78832 13.0032 2.64524 12.8977 2.53975C12.7923 2.43426 12.6492 2.375 12.5 2.375ZM14.75 5.75C14.6008 5.75 14.4577 5.80926 14.3523 5.91475C14.2468 6.02024 14.1875 6.16332 14.1875 6.3125V10.25C14.1875 10.3992 14.2468 10.5423 14.3523 10.6477C14.4577 10.7532 14.6008 10.8125 14.75 10.8125C14.8992 10.8125 15.0423 10.7532 15.1477 10.6477C15.2532 10.5423 15.3125 10.3992 15.3125 10.25V6.3125C15.3125 6.16332 15.2532 6.02024 15.1477 5.91475C15.0423 5.80926 14.8992 5.75 14.75 5.75ZM5.75 4.0625C5.60082 4.0625 5.45774 4.12176 5.35225 4.22725C5.24676 4.33274 5.1875 4.47582 5.1875 4.625V11.9375C5.1875 12.0867 5.24676 12.2298 5.35225 12.3352C5.45774 12.4407 5.60082 12.5 5.75 12.5C5.89918 12.5 6.04226 12.4407 6.14775 12.3352C6.25324 12.2298 6.3125 12.0867 6.3125 11.9375V4.625C6.3125 4.47582 6.25324 4.33274 6.14775 4.22725C6.04226 4.12176 5.89918 4.0625 5.75 4.0625ZM3.5 2.375C3.35082 2.375 3.20774 2.43426 3.10225 2.53975C2.99676 2.64524 2.9375 2.78832 2.9375 2.9375V13.625C2.9375 13.7742 2.99676 13.9173 3.10225 14.0227C3.20774 14.1282 3.35082 14.1875 3.5 14.1875C3.64918 14.1875 3.79226 14.1282 3.89775 14.0227C4.00324 13.9173 4.0625 13.7742 4.0625 13.625V2.9375C4.0625 2.78832 4.00324 2.64524 3.89775 2.53975C3.79226 2.43426 3.64918 2.375 3.5 2.375ZM1.25 5.75C1.10082 5.75 0.957742 5.80926 0.852252 5.91475C0.746763 6.02024 0.6875 6.16332 0.6875 6.3125V10.25C0.6875 10.3992 0.746763 10.5423 0.852252 10.6477C0.957742 10.7532 1.10082 10.8125 1.25 10.8125C1.39918 10.8125 1.54226 10.7532 1.64775 10.6477C1.75324 10.5423 1.8125 10.3992 1.8125 10.25V6.3125C1.8125 6.16332 1.75324 6.02024 1.64775 5.91475C1.54226 5.80926 1.39918 5.75 1.25 5.75Z"/>
</svg>
