<svg width="16" height="16" viewBox="0 0 16 16" fill="none" xmlns="http://www.w3.org/2000/svg">
<g clip-path="url(#clip0_1_87)">
<path d="M7.97344 14.6445H1.99334C1.62656 14.6445 1.32891 14.3468 1.32891 13.9801V2.01994C1.32891 1.65316 1.62659 1.3555 1.99334 1.3555H7.97344C8.34087 1.3555 8.63787 1.0585 8.63787 0.691066C8.63787 0.323628 8.34087 0.0265656 7.97344 0.0265656H1.99334C0.894344 0.0265656 0 0.920941 0 2.01994V13.9801C0 15.0791 0.894344 15.9734 1.99334 15.9734H7.97344C8.34087 15.9734 8.63787 15.6764 8.63787 15.309C8.63787 14.9415 8.34087 14.6445 7.97344 14.6445Z"/>
<path d="M15.802 7.52691L11.7622 3.54019C11.5017 3.28238 11.0805 3.28572 10.8226 3.54685C10.5648 3.80797 10.5675 4.22857 10.8293 4.48638L13.7163 7.33554H5.98011C5.61267 7.33554 5.31567 7.63254 5.31567 7.99997C5.31567 8.36741 5.61267 8.66444 5.98011 8.66444H13.7163L10.8293 11.5136C10.5675 11.7714 10.5655 12.192 10.8226 12.4531C10.8844 12.5158 10.9581 12.5656 11.0393 12.5996C11.1205 12.6336 11.2077 12.6511 11.2957 12.6511C11.4645 12.6511 11.6333 12.5873 11.7622 12.4598L15.802 8.47304C15.8647 8.41119 15.9144 8.33753 15.9484 8.25632C15.9824 8.17511 16 8.08797 16 7.99994C16 7.82194 15.929 7.6525 15.802 7.52691Z" />
</g>
<defs>
<clipPath id="clip0_1_87">
<rect width="16" height="16"/>
</clipPath>
</defs>
</svg>
