<svg width="16" height="16" viewBox="0 0 16 16" fill="none" xmlns="http://www.w3.org/2000/svg">
<path d="M15.355 14.645L12.22 11.5C13.0439 10.5196 13.497 9.28068 13.5 8C13.5 7.86739 13.4473 7.74022 13.3535 7.64645C13.2598 7.55268 13.1326 7.5 13 7.5C12.8674 7.5 12.7402 7.55268 12.6464 7.64645C12.5526 7.74022 12.5 7.86739 12.5 8C12.4946 9.02139 12.142 10.0106 11.5 10.805L10.215 9.5C10.7146 8.95311 10.9942 8.24072 11 7.5V3.5C11 2.70435 10.6839 1.94129 10.1213 1.37868C9.55868 0.816072 8.79562 0.500001 7.99997 0.500001C7.20432 0.500001 6.44126 0.816072 5.87865 1.37868C5.31604 1.94129 4.99997 2.70435 4.99997 3.5V4.295L1.35497 0.645001C1.26082 0.550849 1.13312 0.497955 0.999971 0.497955C0.86682 0.497955 0.739122 0.550849 0.644971 0.645001C0.550819 0.739153 0.497925 0.86685 0.497925 1C0.497925 1.13315 0.550819 1.26085 0.644971 1.355L14.645 15.355C14.6915 15.4019 14.7468 15.4391 14.8077 15.4644C14.8686 15.4898 14.934 15.5029 15 15.5029C15.066 15.5029 15.1313 15.4898 15.1923 15.4644C15.2532 15.4391 15.3085 15.4019 15.355 15.355C15.4018 15.3085 15.439 15.2532 15.4644 15.1923C15.4898 15.1314 15.5029 15.066 15.5029 15C15.5029 14.934 15.4898 14.8686 15.4644 14.8077C15.439 14.7468 15.4018 14.6915 15.355 14.645ZM5.99997 3.5C5.99997 2.96957 6.21068 2.46086 6.58576 2.08579C6.96083 1.71071 7.46954 1.5 7.99997 1.5C8.5304 1.5 9.03911 1.71071 9.41418 2.08579C9.78926 2.46086 9.99997 2.96957 9.99997 3.5V7.5C9.99716 7.97976 9.81938 8.44201 9.49997 8.8L5.99997 5.3V3.5ZM8.36997 10.5L7.23997 9.35C6.74806 9.14321 6.35676 8.75191 6.14997 8.26L4.99997 7.105V7.5C4.99997 8.29565 5.31604 9.05871 5.87865 9.62132C6.44126 10.1839 7.20432 10.5 7.99997 10.5C8.12319 10.5075 8.24675 10.5075 8.36997 10.5Z"/>
<path d="M9.94499 12.05C9.25962 12.3785 8.50223 12.5281 7.74344 12.4847C6.98466 12.4414 6.2492 12.2066 5.60569 11.8022C4.96218 11.3978 4.43157 10.8371 4.06336 10.1722C3.69515 9.50732 3.50133 8.76002 3.49999 8C3.49999 7.86739 3.44731 7.74021 3.35354 7.64645C3.25977 7.55268 3.13259 7.5 2.99999 7.5C2.86738 7.5 2.7402 7.55268 2.64643 7.64645C2.55266 7.74021 2.49999 7.86739 2.49999 8C2.49429 9.37606 3.00462 10.7043 3.93027 11.7225C4.85591 12.7407 6.12961 13.3749 7.49999 13.5V15C7.49999 15.1326 7.55266 15.2598 7.64643 15.3536C7.7402 15.4473 7.86738 15.5 7.99999 15.5C8.13259 15.5 8.25977 15.4473 8.35354 15.3536C8.44731 15.2598 8.49999 15.1326 8.49999 15V13.465C9.26781 13.4003 10.0129 13.1718 10.685 12.795L9.94499 12.05Z" />
</svg>
