<svg width="18" height="18" viewBox="0 0 18 18" fill="none" xmlns="http://www.w3.org/2000/svg">
<path d="M17.1922 11.1977C17.118 11.1238 17.0245 11.0723 16.9223 11.0494C16.8201 11.0264 16.7136 11.0329 16.6149 11.0681C15.2895 11.5407 13.8571 11.6274 12.4843 11.3183C11.1114 11.0092 9.85448 10.3169 8.85947 9.32182C7.86445 8.32675 7.17222 7.06977 6.86318 5.69692C6.55415 4.32407 6.64101 2.89171 7.11366 1.56626C7.14879 1.46761 7.15523 1.36102 7.13224 1.25886C7.10926 1.1567 7.05779 1.06314 6.9838 0.98904C6.90982 0.914937 6.81634 0.863321 6.71422 0.840177C6.61209 0.817033 6.5055 0.823308 6.40679 0.858275C5.2118 1.28026 4.12736 1.9663 3.23416 2.86534C1.63296 4.46775 0.733703 6.64049 0.734131 8.90579C0.734559 11.1711 1.63464 13.3435 3.23645 14.9453C4.83826 16.5471 7.01065 17.4472 9.27595 17.4476C11.5413 17.448 13.714 16.5488 15.3164 14.9476C16.2155 14.0542 16.9016 12.9696 17.3235 11.7744C17.3583 11.6757 17.3645 11.5691 17.3412 11.4671C17.318 11.365 17.2663 11.2716 17.1922 11.1977ZM14.5331 14.1643C13.7777 14.9175 12.8691 15.4994 11.8689 15.8704C10.8687 16.2415 9.80043 16.3929 8.73654 16.3146C7.67265 16.2362 6.63808 15.9298 5.70307 15.4162C4.76807 14.9026 3.95452 14.1939 3.31768 13.338C2.68083 12.4822 2.23559 11.4994 2.0122 10.4563C1.7888 9.41314 1.79248 8.33416 2.02297 7.29259C2.25347 6.25101 2.70539 5.27123 3.34806 4.41977C3.99072 3.56831 4.80907 2.8651 5.74756 2.35789C5.46973 3.74103 5.53666 5.17129 5.94244 6.52243C6.34822 7.87358 7.08037 9.10406 8.07426 10.1053C9.07536 11.0993 10.3058 11.8316 11.657 12.2374C13.0082 12.6432 14.4385 12.71 15.8216 12.432C15.4791 13.0693 15.045 13.6529 14.5331 14.1643Z"/>
</svg>
