<svg width="12" height="12" viewBox="0 0 12 12" fill="none" xmlns="http://www.w3.org/2000/svg">
<path d="M5.99996 0.666656C6.39996 0.666656 6.66663 0.933323 6.66663 1.33332V5.33332H10.6666C11.0666 5.33332 11.3333 5.59999 11.3333 5.99999C11.3333 6.39999 11.0666 6.66666 10.6666 6.66666H6.66663V10.6667C6.66663 11.0667 6.39996 11.3333 5.99996 11.3333C5.59996 11.3333 5.33329 11.0667 5.33329 10.6667V6.66666H1.33329C0.933293 6.66666 0.666626 6.39999 0.666626 5.99999C0.666626 5.59999 0.933293 5.33332 1.33329 5.33332H5.33329V1.33332C5.33329 0.933323 5.59996 0.666656 5.99996 0.666656Z" fill="#3078E4"/>
</svg>
