<svg width="20" height="18" viewBox="0 0 20 18" xmlns="http://www.w3.org/2000/svg">
<path d="M18.6624 5.80195H11.9673V1.44859C11.9673 0.711016 11.3672 0.110977 10.6296 0.110977H1.33762C0.600039 0.110977 0 0.711016 0 1.44859V8.18059C0 8.91816 0.600039 9.5182 1.33762 9.5182H2.42965C2.39613 10.2788 2.2216 10.9751 1.8998 11.6365C1.86677 11.7044 1.85412 11.7805 1.8634 11.8554C1.87267 11.9303 1.90347 12.001 1.95206 12.0588C2.00066 12.1166 2.06496 12.1591 2.13719 12.1811C2.20943 12.2031 2.28649 12.2037 2.35906 12.1828C3.99063 11.7134 4.97863 11.1843 6.04086 9.5182H8.03273V13.8716C8.03273 14.6091 8.6323 15.2092 9.36922 15.2092H13.9591C15.0214 16.8752 16.0094 17.4044 17.6409 17.8738C17.7135 17.8946 17.7906 17.894 17.8628 17.872C17.935 17.85 17.9993 17.8075 18.0479 17.7497C18.0965 17.6919 18.1273 17.6213 18.1366 17.5463C18.1459 17.4714 18.1332 17.3954 18.1002 17.3275C17.7784 16.6661 17.6039 15.9698 17.5704 15.2092H18.6624C19.4 15.2092 20 14.6091 20 13.8716V7.13957C20 6.40199 19.4 5.80195 18.6624 5.80195ZM5.82414 8.73695C5.75719 8.73695 5.69136 8.75416 5.63298 8.78692C5.5746 8.81969 5.52562 8.86691 5.49074 8.92406C4.69242 10.2318 3.98324 10.783 2.92215 11.1796C3.12934 10.5307 3.22793 9.84137 3.2159 9.12109C3.21419 9.01864 3.17228 8.92095 3.09922 8.8491C3.02616 8.77725 2.92779 8.73699 2.82531 8.73699H1.33762C1.03082 8.73699 0.78125 8.48738 0.78125 8.18063V1.44859C0.78125 1.1418 1.03086 0.892227 1.33762 0.892227H10.6296C10.9364 0.892227 11.186 1.14184 11.186 1.44859V8.18059C11.186 8.48738 10.9364 8.73695 10.6296 8.73695H5.82414ZM19.2188 13.8716C19.2188 14.1784 18.9691 14.4279 18.6624 14.4279H17.1747C16.9615 14.4279 16.7877 14.5989 16.7841 14.812C16.7721 15.5323 16.8707 16.2216 17.0779 16.8706C16.0168 16.4739 15.3077 15.9227 14.5093 14.615C14.4744 14.5579 14.4254 14.5107 14.3671 14.4779C14.3087 14.4451 14.2428 14.4279 14.1759 14.4279H9.36926C9.06309 14.4279 8.81402 14.1783 8.81402 13.8716V9.5182H10.6297C11.3673 9.5182 11.9673 8.91816 11.9673 8.18059V6.5832H18.6624C18.9692 6.5832 19.2188 6.83281 19.2188 7.13957L19.2188 13.8716Z" />
<path d="M8.42974 6.38313L8.04778 6.00117C8.34915 5.58219 8.52739 5.06899 8.52739 4.51461C8.52739 3.10735 7.38247 1.96246 5.97524 1.96246C4.56802 1.96246 3.4231 3.10739 3.4231 4.51461C3.4231 5.92184 4.56802 7.06676 5.97524 7.06676C6.54685 7.06676 7.07513 6.87785 7.50103 6.55926L7.87735 6.93559C7.95364 7.01188 8.0536 7.05 8.15356 7.05C8.25353 7.05 8.35353 7.01184 8.42978 6.93559C8.58231 6.78301 8.58231 6.53567 8.42974 6.38313ZM5.9752 6.28551C4.99872 6.28551 4.20431 5.4911 4.20431 4.51461C4.20431 3.53813 4.99872 2.74371 5.9752 2.74371C6.95169 2.74371 7.7461 3.53813 7.7461 4.51461C7.74647 4.84085 7.65614 5.16076 7.4852 5.43864L7.04614 4.99957C6.8936 4.84703 6.64626 4.84703 6.49372 4.99957C6.34118 5.15211 6.34118 5.39946 6.49372 5.55199L6.94009 5.99836C6.65329 6.18601 6.31794 6.28582 5.9752 6.28551ZM14.4798 8.27114C14.4445 8.17886 14.3819 8.0995 14.3005 8.04356C14.219 7.98762 14.1225 7.95774 14.0237 7.95789H14.0236C13.925 7.95773 13.8286 7.98747 13.7473 8.04319C13.6659 8.09891 13.6034 8.178 13.5679 8.27L11.9481 12.5237C11.8714 12.7253 11.9726 12.9509 12.1742 13.0277C12.2186 13.0447 12.2656 13.0534 12.3131 13.0534C12.4706 13.0534 12.6189 12.9576 12.6783 12.8017L12.9861 11.9933H15.0485L15.3529 12.8006C15.429 13.0024 15.6542 13.1044 15.8562 13.0282C16.0581 12.9521 16.16 12.7268 16.0839 12.5249L14.4798 8.27114ZM13.2836 11.212L14.0223 9.27203L14.7538 11.212H13.2836Z"/>
</svg>
