<svg width="19" height="5" viewBox="0 0 19 5" fill="none" xmlns="http://www.w3.org/2000/svg">
<path d="M9.5 0.53125C8.41456 0.53125 7.53125 1.41456 7.53125 2.5C7.53125 3.58544 8.41456 4.46875 9.5 4.46875C10.5854 4.46875 11.4688 3.58544 11.4688 2.5C11.4688 1.41456 10.5854 0.53125 9.5 0.53125ZM2.9375 0.53125C1.85206 0.53125 0.96875 1.41456 0.96875 2.5C0.96875 3.58544 1.85206 4.46875 2.9375 4.46875C4.02294 4.46875 4.90625 3.58544 4.90625 2.5C4.90625 1.41456 4.02294 0.53125 2.9375 0.53125ZM16.0625 0.53125C14.9771 0.53125 14.0938 1.41456 14.0938 2.5C14.0938 3.58544 14.9771 4.46875 16.0625 4.46875C17.1479 4.46875 18.0312 3.58544 18.0312 2.5C18.0312 1.41456 17.1479 0.53125 16.0625 0.53125Z" fill="#8E8E8E"/>
</svg>
