<svg width="20" height="20" viewBox="0 0 20 20" xmlns="http://www.w3.org/2000/svg">
<path d="M19.8711 13.1602C19.8672 13.1485 19.8633 13.1367 19.8555 13.1211C19.5508 12.3086 18.7618 12.2578 18.0235 12.3985C15.9141 12.793 13.8047 13.1914 11.6993 13.586C11.7891 13.0899 11.5586 12.5469 11.1328 12.2695C10.7735 12.0352 10.3243 11.9805 9.9141 11.8985C8.96488 11.711 7.96097 11.4102 6.98831 11.4336C5.49222 11.4688 4.18363 12.4297 2.72269 12.7422C2.74222 12.4414 2.44925 12.1914 2.14847 12.1485C1.87894 12.1094 1.62113 12.1875 1.36722 12.2735C1.12113 12.3555 0.878939 12.4531 0.640658 12.5625C0.46097 12.6445 0.234408 12.7305 0.121127 12.9024C-0.0429359 13.1445 0.0898766 13.5156 0.175814 13.7578C0.781283 15.4492 1.38285 17.1485 1.98441 18.8438C2.1641 19.3516 2.43753 19.6055 2.99613 19.4219C3.25785 19.336 3.51566 19.25 3.77738 19.168C4.1641 19.043 5.05081 18.6055 4.6016 18.0469C5.36722 17.5938 6.32035 17.6133 7.19925 17.7539C8.07816 17.8945 8.94925 18.1485 9.83988 18.125C10.836 18.0977 11.7852 17.7227 12.711 17.3555L18.5 15.0469C19.2969 14.7266 20.2227 14.1641 19.8711 13.1602ZM4.00003 18.418L2.73441 18.8672C2.69144 18.8828 2.66019 18.8711 2.65628 18.8672L0.664095 13.2461C0.664095 13.2383 0.67972 13.207 0.726595 13.1914L1.99222 12.7422C2.00785 12.7383 2.02347 12.7344 2.03519 12.7344C2.05863 12.7344 2.07035 12.7422 2.07425 12.7422L2.25394 13.25L3.918 17.9414C3.918 17.9414 3.918 17.9453 3.92191 17.9453L4.07035 18.3633C4.05863 18.375 4.043 18.4024 4.00003 18.418ZM18.918 14.1992L11.2071 17.2578C10.6016 17.4961 9.94144 17.5703 9.29691 17.4688C8.38675 17.3242 7.49613 17.0781 6.57425 17.0274C5.7891 16.9844 5.12113 17.1797 4.39456 17.4375C3.91019 16.0703 3.42581 14.6992 2.94144 13.332L6.55472 12.0508C6.7305 11.9883 6.918 11.9766 7.1016 12.0078L7.13285 12.0156H7.13675L10.4805 12.6328C10.7696 12.6875 11.0118 12.918 11.0782 13.207C11.1914 13.7227 10.7305 14.1992 10.211 14.1016L7.53128 13.6055C7.36332 13.5742 7.19925 13.6875 7.168 13.8555C7.13675 14.0235 7.25003 14.1875 7.418 14.2188L10.0977 14.7149C10.5586 14.8008 11.0586 14.6367 11.3789 14.2735L18.5508 12.9258C18.8516 12.8711 19.1563 13.0274 19.2774 13.3086C19.4336 13.6563 19.2657 14.0625 18.918 14.1992ZM5.33988 6.91798H6.50394C6.57425 7.14845 6.668 7.37501 6.78128 7.58986L5.96097 8.41017C5.75394 8.6172 5.75394 8.95314 5.96097 9.16017L6.77738 9.97658C6.9766 10.1758 7.32816 10.1797 7.52738 9.97658L8.3516 9.15236C8.56644 9.26564 8.7891 9.35939 9.01956 9.4297V10.5977C9.01956 10.8867 9.26566 11.125 9.55082 11.125H10.7071C10.9922 11.125 11.2383 10.8789 11.2344 10.5938V7.42189C11.2344 7.00392 10.7852 7.15236 10.5586 7.23048C10.4258 7.27736 10.2774 7.29689 10.1368 7.29689C9.33207 7.29689 8.64066 6.62111 8.64066 5.81642C8.64456 5.31642 8.9141 4.82033 9.33597 4.5547C9.71097 4.32033 10.1797 4.26564 10.5977 4.40626C10.8203 4.48048 11.2305 4.60158 11.2305 4.20314V1.03517C11.2305 0.750015 10.9883 0.500015 10.7032 0.503921H9.54691C9.25785 0.503921 9.01566 0.746108 9.01956 1.03517V2.19923C8.7891 2.26955 8.56644 2.3633 8.3516 2.47658L7.52738 1.65236C7.32816 1.45314 6.9805 1.44533 6.77738 1.65236L5.96488 2.46486C5.76175 2.66798 5.75785 3.00392 5.96488 3.21876L6.78519 4.03908C6.67191 4.25001 6.57816 4.47658 6.50785 4.70705L5.33988 4.70314C5.04691 4.70705 4.81253 4.94533 4.81253 5.23439V6.38673C4.81644 6.68751 5.06253 6.9258 5.33988 6.91798ZM5.43363 5.32814L6.74613 5.33205C6.89066 5.33205 7.01566 5.23048 7.05081 5.08986C7.12894 4.75392 7.25785 4.44142 7.43753 4.15626C7.51566 4.03517 7.49613 3.87501 7.39457 3.76955L6.51175 2.88283L6.46878 2.83986L7.14847 2.15626L8.07425 3.08595C8.17581 3.18751 8.33597 3.20705 8.46097 3.12892C8.75394 2.94923 9.06644 2.81642 9.39847 2.7383C9.5391 2.70705 9.63675 2.57814 9.63675 2.43361V1.12111H10.6016V3.75783C10.6016 3.65236 9.78128 3.72658 9.70707 3.7422C8.74613 3.93361 8.01566 4.83205 8.00785 5.80861C8.00003 6.93751 8.98441 7.91408 10.1133 7.91408C10.2774 7.91408 10.4375 7.89845 10.5977 7.85939V10.5H9.62894V9.19142C9.62894 9.04689 9.52738 8.92189 9.38675 8.88673C9.05863 8.80861 8.74222 8.6797 8.44925 8.50001C8.32816 8.42189 8.168 8.44142 8.06644 8.54298L7.14847 9.47267L6.46488 8.78908L7.39066 7.86329C7.49222 7.76173 7.51175 7.60158 7.43363 7.48048C7.25003 7.18751 7.12113 6.87111 7.04691 6.53908C7.01566 6.39845 6.88675 6.29689 6.74222 6.29689H5.43363V5.32814ZM13.2266 10.9727C13.918 10.9727 14.5 10.4531 14.668 9.75001C14.8243 9.78908 14.9844 9.80861 15.1485 9.80861C16.3789 9.80861 17.3828 8.69923 17.3828 7.33595C17.3828 6.56642 17.0625 5.85158 16.5274 5.39064C16.8477 5.00392 17.0274 4.50001 17.0274 3.96095C17.0274 2.78517 16.1641 1.83205 15.1016 1.83205C14.9649 1.83205 14.8321 1.84767 14.7032 1.87892C14.586 1.10158 13.9727 0.507827 13.2305 0.507827C12.4102 0.507827 11.7422 1.2422 11.7422 2.14455V9.33595C11.7383 10.2383 12.4063 10.9727 13.2266 10.9727ZM12.3711 2.14064C12.3868 1.88673 12.4414 1.63673 12.6211 1.44533C12.8555 1.19533 13.2149 1.07814 13.5391 1.21095C13.9024 1.3633 14.1133 1.77345 14.0977 2.16408C14.0782 2.5547 13.8633 2.91798 13.5703 3.18361C13.4141 3.32814 13.1055 3.57814 13.2891 3.82033C13.418 3.9922 13.6953 3.90626 13.8711 3.77736C14.2071 3.52736 14.4649 3.16798 14.5938 2.76955C14.6563 2.57033 14.7618 2.46876 14.9805 2.45705C15.5743 2.41798 16.1368 2.8672 16.3243 3.4297C16.5039 3.97267 16.3672 4.59767 15.9961 5.03126C15.625 5.46486 15.0391 5.69923 14.4727 5.66017C14.25 5.64454 13.8438 5.58595 13.7891 5.89845C13.7422 6.1797 14.0547 6.26954 14.2696 6.28908C14.8985 6.34376 15.5508 6.16798 16.0664 5.80079C16.6289 6.30079 16.8789 7.12111 16.6993 7.85158C16.4883 8.69923 15.6172 9.41798 14.7188 9.10158C14.6602 8.66017 14.4453 8.2422 14.1211 7.93751C13.9571 7.78517 13.5352 7.58205 13.4219 7.91408C13.3594 8.10548 13.5469 8.27736 13.6914 8.41798C13.9258 8.65236 14.0899 8.96486 14.1055 9.29689C14.1407 10.0313 13.2696 10.711 12.6602 10.0899C12.3672 9.78908 12.3633 9.31642 12.3633 8.92189V3.41408C12.3555 2.99611 12.3438 2.56251 12.3711 2.14064Z" />
</svg>
