<svg width="20" height="20" viewBox="0 0 20 20" fill="none" xmlns="http://www.w3.org/2000/svg">
<path d="M17.0703 10.4747H15.1126C14.8461 10.4747 14.5882 10.5111 14.3427 10.578C13.8584 9.62601 12.8696 8.97187 11.7303 8.97187H8.26973C7.13039 8.97187 6.14164 9.62601 5.65734 10.578C5.40645 10.5095 5.14752 10.4747 4.88742 10.4747H2.92969C1.31426 10.4747 0 11.7889 0 13.4044V16.534C0 17.5032 0.788555 18.2918 1.75781 18.2918H18.2422C19.2114 18.2918 20 17.5032 20 16.534V13.4044C20 11.7889 18.6857 10.4747 17.0703 10.4747ZM5.34004 11.9016V17.12H1.75781C1.43473 17.12 1.17188 16.8571 1.17188 16.534V13.4044C1.17188 12.4352 1.96043 11.6466 2.92969 11.6466H4.88742C5.04648 11.6466 5.20051 11.6682 5.34715 11.708C5.34265 11.7725 5.34028 11.837 5.34004 11.9016ZM13.4881 17.12H6.51191V11.9016C6.51191 10.9323 7.30047 10.1438 8.26973 10.1438H11.7303C12.6995 10.1438 13.4881 10.9323 13.4881 11.9016V17.12ZM18.8281 16.534C18.8281 16.8571 18.5653 17.12 18.2422 17.12H14.66V11.9016C14.6597 11.837 14.6573 11.7724 14.6529 11.708C14.8027 11.6672 14.9573 11.6466 15.1126 11.6466H17.0703C18.0396 11.6466 18.8281 12.4351 18.8281 13.4044V16.534Z"/>
<path d="M3.90853 4.94156C2.47303 4.94156 1.30518 6.10941 1.30518 7.54492C1.30514 8.98043 2.47303 10.1483 3.90853 10.1483C5.344 10.1483 6.51189 8.98043 6.51189 7.54492C6.51189 6.10941 5.34404 4.94156 3.90853 4.94156ZM3.9085 8.9764C3.11916 8.9764 2.47701 8.33425 2.47701 7.54492C2.47701 6.75558 3.11916 6.11343 3.9085 6.11343C4.69783 6.11343 5.33998 6.75558 5.33998 7.54492C5.33998 8.33425 4.69783 8.9764 3.9085 8.9764ZM9.99994 1.70816C8.08213 1.70816 6.52189 3.26839 6.52189 5.18621C6.52189 7.10402 8.08213 8.66425 9.99994 8.66425C11.9178 8.66425 13.478 7.10402 13.478 5.18621C13.478 3.26843 11.9178 1.70816 9.99994 1.70816ZM9.99994 7.49238C8.7283 7.49238 7.69377 6.45785 7.69377 5.18621C7.69377 3.91461 8.7283 2.88004 9.99994 2.88004C11.2716 2.88004 12.3061 3.91457 12.3061 5.18621C12.3061 6.45785 11.2716 7.49238 9.99994 7.49238ZM16.0913 4.94156C14.6559 4.94156 13.488 6.10941 13.488 7.54492C13.488 8.98043 14.6559 10.1483 16.0913 10.1483C17.5269 10.1483 18.6947 8.98043 18.6947 7.54492C18.6947 6.10941 17.5269 4.94156 16.0913 4.94156ZM16.0913 8.9764C15.302 8.9764 14.6599 8.33425 14.6599 7.54492C14.6599 6.75558 15.302 6.11343 16.0913 6.11343C16.8807 6.11343 17.5228 6.75558 17.5228 7.54492C17.5228 8.33425 16.8807 8.9764 16.0913 8.9764Z" />
</svg>
