<svg width="16" height="16" viewBox="0 0 16 16" fill="none" xmlns="http://www.w3.org/2000/svg">
<path d="M14.665 4.052C14.4384 3.92975 14.1825 3.87218 13.9253 3.88558C13.6682 3.89899 13.4197 3.98285 13.207 4.128L10.5 5.944V4.5C10.4995 4.10234 10.3413 3.72111 10.0601 3.43992C9.77888 3.15873 9.39766 3.00053 9 3H2C1.60234 3.00053 1.22111 3.15873 0.939924 3.43992C0.658734 3.72111 0.500529 4.10234 0.5 4.5V11.5C0.500529 11.8977 0.658734 12.2789 0.939924 12.5601C1.22111 12.8413 1.60234 12.9995 2 13H9C9.39766 12.9995 9.77888 12.8413 10.0601 12.5601C10.3413 12.2789 10.4995 11.8977 10.5 11.5V10.056L13.207 11.872C13.4192 12.0182 13.6679 12.1027 13.9253 12.1161C14.1826 12.1296 14.4387 12.0714 14.665 11.948C14.9227 11.8049 15.1367 11.5944 15.2838 11.3389C15.4309 11.0834 15.5056 10.7927 15.5 10.498V5.502C15.5056 5.20726 15.4309 4.91656 15.2838 4.6611C15.1367 4.40564 14.9227 4.19507 14.665 4.052ZM9.5 11.5C9.5 11.6326 9.44732 11.7598 9.35355 11.8536C9.25978 11.9473 9.13261 12 9 12H2C1.86739 12 1.74021 11.9473 1.64645 11.8536C1.55268 11.7598 1.5 11.6326 1.5 11.5V4.5C1.5 4.36739 1.55268 4.24021 1.64645 4.14645C1.74021 4.05268 1.86739 4 2 4H9C9.13261 4 9.25978 4.05268 9.35355 4.14645C9.44732 4.24021 9.5 4.36739 9.5 4.5V11.5ZM14.5 10.498C14.5053 10.6115 14.4796 10.7243 14.4257 10.8244C14.3718 10.9244 14.2917 11.0079 14.194 11.066C14.1276 11.1037 14.0517 11.1214 13.9755 11.1172C13.8992 11.1129 13.8258 11.0868 13.764 11.042L10.5 8.852V7.148L13.764 4.958C13.8262 4.91396 13.8995 4.88835 13.9755 4.88411C14.0516 4.87986 14.1273 4.89715 14.194 4.934C14.2917 4.99206 14.3718 5.07557 14.4257 5.17562C14.4796 5.27567 14.5053 5.38848 14.5 5.502V10.498Z"/>
</svg>
