<svg width="14" height="14" viewBox="0 0 14 14" fill="none" xmlns="http://www.w3.org/2000/svg">
<g clip-path="url(#clip0_1_385)">
<path d="M0.4375 11.375C0.553532 11.375 0.664812 11.3289 0.746859 11.2469C0.828906 11.1648 0.875 11.0535 0.875 10.9375V3.93751C0.875 3.82147 0.921094 3.71019 1.00314 3.62815C1.08519 3.5461 1.19647 3.50001 1.3125 3.50001H8.7675C8.88353 3.50001 8.99481 3.45391 9.07686 3.37186C9.15891 3.28982 9.205 3.17854 9.205 3.06251C9.205 2.94647 9.15891 2.83519 9.07686 2.75315C8.99481 2.6711 8.88353 2.62501 8.7675 2.62501H1.3125C0.588875 2.62501 0 3.21388 0 3.93751V10.9375C0 11.0535 0.0460936 11.1648 0.128141 11.2469C0.210188 11.3289 0.321468 11.375 0.4375 11.375ZM13.3665 3.54638L10.5 4.97963V4.11863L13.8722 0.74638C13.9519 0.663867 13.996 0.553353 13.995 0.438642C13.994 0.323931 13.948 0.214201 13.8669 0.133085C13.7858 0.0519686 13.6761 0.00595719 13.5614 0.00496039C13.4467 0.00396358 13.3361 0.0480611 13.2536 0.127755L0.128625 13.2528C0.0489308 13.3353 0.0048333 13.4458 0.00583011 13.5605C0.00682692 13.6752 0.0528383 13.7849 0.133954 13.8661C0.21507 13.9472 0.324801 13.9932 0.439512 13.9942C0.554223 13.9952 0.664737 13.9511 0.74725 13.8714L3.24362 11.375H9.1875C9.91113 11.375 10.5 10.7861 10.5 10.0625V9.02038L13.3665 10.4536C13.4332 10.4871 13.5073 10.5029 13.5819 10.4996C13.6564 10.4963 13.7289 10.4739 13.7923 10.4348C13.8558 10.3956 13.9082 10.3408 13.9446 10.2756C13.9809 10.2105 14 10.1371 14 10.0625V3.93751C14 3.8629 13.9809 3.78953 13.9446 3.72438C13.9082 3.65923 13.8558 3.60445 13.7923 3.56526C13.7289 3.52606 13.6564 3.50375 13.5819 3.50045C13.5073 3.49715 13.4332 3.51296 13.3665 3.54638ZM9.1875 10.5H4.11862L9.625 4.99363V10.0625C9.625 10.1785 9.57891 10.2898 9.49686 10.3719C9.41481 10.4539 9.30353 10.5 9.1875 10.5ZM13.125 9.35463L10.5 8.04213V5.95788L13.125 4.64538V9.35463Z" />
</g>
<defs>
<clipPath id="clip0_1_385">
<rect width="14" height="14" fill="white"/>
</clipPath>
</defs>
</svg>
