<svg width="12" height="16" viewBox="0 0 12 16" fill="none" xmlns="http://www.w3.org/2000/svg">
<path d="M11.7118 7.65234C11.7118 7.38738 11.497 7.1727 11.2321 7.1727C10.9672 7.1727 10.7525 7.38738 10.7525 7.65234C10.7525 10.2728 8.62053 12.4048 6.00004 12.4048C3.37956 12.4048 1.2476 10.2728 1.2476 7.65234C1.2476 7.38738 1.03286 7.1727 0.767967 7.1727C0.50308 7.1727 0.28833 7.38738 0.28833 7.65234C0.28833 10.6403 2.59455 13.0993 5.52041 13.3437V15.0407H3.38397C3.25677 15.0407 3.13477 15.0913 3.04482 15.1812C2.95487 15.2712 2.90434 15.3932 2.90434 15.5204C2.90434 15.6476 2.95487 15.7696 3.04482 15.8595C3.13477 15.9495 3.25677 16 3.38397 16H8.61605C8.74326 16 8.86526 15.9495 8.95521 15.8595C9.04516 15.7696 9.09569 15.6476 9.09569 15.5204C9.09569 15.3932 9.04516 15.2712 8.95521 15.1812C8.86526 15.0913 8.74326 15.0407 8.61605 15.0407H6.47962V13.3437C9.40547 13.0993 11.7118 10.6403 11.7118 7.65234Z" />
<path d="M6 10.748C7.707 10.748 9.09571 9.35926 9.09571 7.65233V3.09564C9.09571 1.38871 7.707 0 6 0C4.29307 0 2.90436 1.38871 2.90436 3.09564V7.65233C2.90436 9.35932 4.29307 10.748 6 10.748ZM3.86363 3.09564C3.86363 1.91765 4.82201 0.959275 6 0.959275C7.17806 0.959275 8.13644 1.91765 8.13644 3.09564V7.65233C8.13644 8.83032 7.17806 9.7887 6 9.7887C4.82201 9.7887 3.86363 8.83032 3.86363 7.65233V3.09564Z" />
</svg>
