<svg xmlns="http://www.w3.org/2000/svg" xmlns:xlink="http://www.w3.org/1999/xlink" width="500" zoomAndPan="magnify" viewBox="0 0 375 374.999991" height="500" preserveAspectRatio="xMidYMid meet" version="1.0"><defs><clipPath id="1d67be58fc"><path d="M 218.453125 57.117188 L 297.980469 57.117188 L 297.980469 318 L 218.453125 318 Z M 218.453125 57.117188 " clip-rule="nonzero"/></clipPath><clipPath id="f5147e7bf0"><path d="M 297.980469 83.625 L 297.980469 317.886719 L 218.453125 291.378906 L 218.453125 57.117188 Z M 297.980469 83.625 " clip-rule="nonzero"/></clipPath><clipPath id="77af0f256e"><path d="M 151.964844 57.101562 L 218.457031 57.101562 L 218.457031 131.90625 L 151.964844 131.90625 Z M 151.964844 57.101562 " clip-rule="nonzero"/></clipPath><clipPath id="88b7847a70"><path d="M 151.964844 79.273438 L 151.964844 131.90625 L 218.457031 109.742188 L 218.457031 57.109375 Z M 151.964844 79.273438 " clip-rule="nonzero"/></clipPath><clipPath id="c9a2a85ad0"><path d="M 121.957031 121.453125 L 179.011719 121.453125 L 179.011719 277.910156 L 121.957031 277.910156 Z M 121.957031 121.453125 " clip-rule="nonzero"/></clipPath><clipPath id="0cd9748935"><path d="M 179.011719 140.472656 L 179.011719 277.8125 L 121.957031 258.792969 L 121.957031 121.453125 Z M 179.011719 140.472656 " clip-rule="nonzero"/></clipPath><clipPath id="693967c1a3"><path d="M 77.019531 121.320312 L 121.964844 121.320312 L 121.964844 230.882812 L 77.019531 230.882812 Z M 77.019531 121.320312 " clip-rule="nonzero"/></clipPath><clipPath id="098e3b5b63"><path d="M 77.019531 136.429688 L 77.019531 230.882812 L 121.964844 215.898438 L 121.964844 121.449219 Z M 77.019531 136.429688 " clip-rule="nonzero"/></clipPath></defs><g clip-path="url(#1d67be58fc)"><g clip-path="url(#f5147e7bf0)"><path fill="#111111" d="M 297.980469 57.117188 L 297.980469 317.746094 L 218.453125 317.746094 L 218.453125 57.117188 Z M 297.980469 57.117188 " fill-opacity="1" fill-rule="nonzero"/></g></g><g clip-path="url(#77af0f256e)"><g clip-path="url(#88b7847a70)"><path fill="#111111" d="M 151.964844 131.90625 L 151.964844 57.101562 L 218.457031 57.101562 L 218.457031 131.90625 Z M 151.964844 131.90625 " fill-opacity="1" fill-rule="nonzero"/></g></g><g clip-path="url(#c9a2a85ad0)"><g clip-path="url(#0cd9748935)"><path fill="#111111" d="M 179.011719 121.453125 L 179.011719 277.910156 L 121.957031 277.910156 L 121.957031 121.453125 Z M 179.011719 121.453125 " fill-opacity="1" fill-rule="nonzero"/></g></g><g clip-path="url(#693967c1a3)"><g clip-path="url(#098e3b5b63)"><path fill="#111111" d="M 77.019531 230.882812 L 77.019531 121.496094 L 121.964844 121.496094 L 121.964844 230.882812 Z M 77.019531 230.882812 " fill-opacity="1" fill-rule="nonzero"/></g></g></svg>