<?xml version="1.0" encoding="UTF-8"?>
<svg xmlns="http://www.w3.org/2000/svg" xmlns:xlink="http://www.w3.org/1999/xlink" width="48px" height="48px" viewBox="0 0 48 48" version="1.1">
<g id="surface1">
<path style=" stroke:none;fill-rule:nonzero;fill:rgb(0%,0%,0%);fill-opacity:1;" d="M 45.894531 21.367188 L 39.894531 3.367188 C 39.625 2.550781 38.859375 2 38 2 L 10 2 C 9.140625 2 8.375 2.550781 8.105469 3.367188 L 2.105469 21.367188 C 2.042969 21.574219 2.007812 21.785156 2 22 L 2 44 C 2 45.105469 2.894531 46 4 46 L 44 46 C 45.105469 46 46 45.105469 46 44 C 46 43.800781 45.984375 21.746094 46 21.945312 C 45.996094 21.75 45.960938 21.554688 45.894531 21.367188 Z M 11.441406 6 L 36.558594 6 L 41.222656 20 L 34.824219 20 L 25.414062 10.585938 C 24.632812 9.804688 23.367188 9.804688 22.585938 10.585938 L 13.171875 20 L 6.773438 20 Z M 22 42 L 22 32 L 26 32 L 26 42 Z M 42 42 L 30 42 L 30 30 C 30 28.894531 29.105469 28 28 28 L 20 28 C 18.894531 28 18 28.894531 18 30 L 18 42 L 6 42 L 6 24 L 14 24 C 14.53125 24 15.039062 23.789062 15.414062 23.414062 L 24 14.828125 L 32.585938 23.414062 C 32.960938 23.789062 33.46875 24 34 24 L 42 24 Z M 26 22 C 26 23.105469 25.105469 24 24 24 C 22.894531 24 22 23.105469 22 22 C 22 20.894531 22.894531 20 24 20 C 25.105469 20 26 20.894531 26 22 Z M 8 28 L 16 28 L 16 32 L 8 32 Z M 32 28 L 40 28 L 40 32 L 32 32 Z M 8 34 L 16 34 L 16 38 L 8 38 Z M 32 34 L 40 34 L 40 38 L 32 38 Z M 32 34 "/>
</g>
</svg>
